<svg width="19" height="19" viewBox="0 0 23 23" fill="none" xmlns="http://www.w3.org/2000/svg">
<path d="M21.803 11.5C21.803 11.7859 21.6894 12.0602 21.4872 12.2624C21.285 12.4645 21.0108 12.5781 20.7249 12.5781H5.60119L10.2299 17.206C10.4325 17.4085 10.5463 17.6832 10.5463 17.9697C10.5463 18.2561 10.4325 18.5308 10.2299 18.7333C10.0274 18.9359 9.7527 19.0496 9.46627 19.0496C9.17984 19.0496 8.90514 18.9359 8.7026 18.7333L2.23385 12.2646C2.13334 12.1644 2.05359 12.0454 1.99917 11.9143C1.94476 11.7833 1.91675 11.6428 1.91675 11.5009C1.91675 11.359 1.94476 11.2185 1.99917 11.0875C2.05359 10.9564 2.13334 10.8374 2.23385 10.7372L8.7026 4.26848C8.80288 4.16819 8.92194 4.08864 9.05297 4.03437C9.184 3.98009 9.32444 3.95216 9.46627 3.95216C9.6081 3.95216 9.74854 3.98009 9.87957 4.03437C10.0106 4.08864 10.1297 4.16819 10.2299 4.26848C10.3302 4.36877 10.4098 4.48782 10.4641 4.61885C10.5183 4.74989 10.5463 4.89032 10.5463 5.03215C10.5463 5.17398 10.5183 5.31442 10.4641 5.44545C10.4098 5.57648 10.3302 5.69554 10.2299 5.79582L5.60119 10.4219H20.7249C21.0108 10.4219 21.285 10.5355 21.4872 10.7377C21.6894 10.9398 21.803 11.2141 21.803 11.5Z" fill="#495969"/>
</svg>
