<svg width="21" height="17" viewBox="0 0 21 17" fill="none" xmlns="http://www.w3.org/2000/svg">
<path d="M20.803 8.5C20.803 8.78594 20.6894 9.06016 20.4872 9.26235C20.285 9.46454 20.0108 9.57813 19.7249 9.57813H4.60119L9.22994 14.206C9.43248 14.4085 9.54626 14.6832 9.54626 14.9697C9.54626 15.2561 9.43248 15.5308 9.22994 15.7333C9.0274 15.9359 8.7527 16.0496 8.46627 16.0496C8.17984 16.0496 7.90514 15.9359 7.7026 15.7333L1.23385 9.26457C1.13334 9.16441 1.05359 9.04539 0.999174 8.91435C0.944759 8.7833 0.916748 8.6428 0.916748 8.5009C0.916748 8.359 0.944759 8.2185 0.999174 8.08746C1.05359 7.95641 1.13334 7.83739 1.23385 7.73723L7.7026 1.26848C7.80288 1.16819 7.92194 1.08864 8.05297 1.03437C8.184 0.980091 8.32444 0.952156 8.46627 0.952156C8.6081 0.952156 8.74854 0.980091 8.87957 1.03437C9.0106 1.08864 9.12965 1.16819 9.22994 1.26848C9.33023 1.36877 9.40978 1.48782 9.46406 1.61885C9.51833 1.74989 9.54626 1.89032 9.54626 2.03215C9.54626 2.17398 9.51833 2.31442 9.46406 2.44545C9.40978 2.57648 9.33023 2.69554 9.22994 2.79582L4.60119 7.42188H19.7249C20.0108 7.42188 20.285 7.53546 20.4872 7.73765C20.6894 7.93984 20.803 8.21407 20.803 8.5Z" fill="#495969"/>
</svg>
