<svg width="24" height="24" viewBox="0 0 24 24" fill="none" xmlns="http://www.w3.org/2000/svg">
<path d="M22.751 12C22.751 12.2984 22.6325 12.5846 22.4215 12.7955C22.2105 13.0065 21.9244 13.125 21.626 13.125H5.84476L10.6748 17.9541C10.8861 18.1654 11.0048 18.4521 11.0048 18.751C11.0048 19.0499 10.8861 19.3365 10.6748 19.5478C10.4634 19.7592 10.1768 19.8779 9.87788 19.8779C9.579 19.8779 9.29235 19.7592 9.08101 19.5478L2.33101 12.7978C2.22613 12.6933 2.14291 12.5691 2.08613 12.4324C2.02935 12.2957 2.00012 12.149 2.00012 12.001C2.00012 11.8529 2.02935 11.7063 2.08613 11.5696C2.14291 11.4328 2.22613 11.3086 2.33101 11.2041L9.08101 4.4541C9.18566 4.34945 9.30989 4.26644 9.44662 4.20981C9.58335 4.15317 9.72989 4.12402 9.87788 4.12402C10.0259 4.12402 10.1724 4.15317 10.3091 4.20981C10.4459 4.26644 10.5701 4.34945 10.6748 4.4541C10.7794 4.55875 10.8624 4.68298 10.9191 4.81971C10.9757 4.95644 11.0048 5.10298 11.0048 5.25097C11.0048 5.39897 10.9757 5.54551 10.9191 5.68224C10.8624 5.81897 10.7794 5.9432 10.6748 6.04785L5.84476 10.875H21.626C21.9244 10.875 22.2105 10.9936 22.4215 11.2045C22.6325 11.4155 22.751 11.7017 22.751 12Z" fill="#495969"/>
</svg>
