<svg width="24" height="24" viewBox="0 0 24 24" fill="none" xmlns="http://www.w3.org/2000/svg">
<path d="M12 9.80269C14.1512 9.80269 15.9013 8.05256 15.9013 5.90135C15.9013 3.75013 14.1512 2 12 2C9.84875 2 8.09862 3.75013 8.09862 5.90135C8.09862 8.05256 9.84875 9.80269 12 9.80269ZM12 3.34529C13.4094 3.34529 14.556 4.49193 14.556 5.90135C14.556 7.31076 13.4094 8.4574 12 8.4574C10.5905 8.4574 9.44391 7.31076 9.44391 5.90135C9.44391 4.49193 10.5905 3.34529 12 3.34529ZM19.8923 9.80269C21.2523 9.80269 22.3587 8.69628 22.3587 7.33632C22.3587 5.97637 21.2523 4.86996 19.8923 4.86996C18.5324 4.86996 17.426 5.97637 17.426 7.33632C17.426 8.69628 18.5324 9.80269 19.8923 9.80269ZM19.8923 6.21525C20.5105 6.21525 21.0134 6.71816 21.0134 7.33632C21.0134 7.95448 20.5105 8.4574 19.8923 8.4574C19.2742 8.4574 18.7713 7.95448 18.7713 7.33632C18.7713 6.71816 19.2742 6.21525 19.8923 6.21525ZM20.4349 11.3274H19.3946C18.1686 11.3274 17.1103 12.0517 16.6281 13.092C15.6352 12.0082 14.2091 11.3274 12.6268 11.3274H11.3731C9.7909 11.3274 8.36476 12.0082 7.37189 13.092C6.8896 12.0517 5.83131 11.3274 4.60534 11.3274H3.56498C1.88606 11.3274 0.520142 12.685 0.520142 14.3538V19.2511C0.520142 19.9756 1.1118 20.565 1.83907 20.565H5.95238C6.02135 21.3677 6.69633 22 7.51664 22H16.4833C17.3036 22 17.9786 21.3677 18.0476 20.565H22.1139C22.8671 20.565 23.4798 19.9547 23.4798 19.2045V14.3538C23.4798 12.685 22.1139 11.3274 20.4349 11.3274ZM1.86543 14.3538C1.86543 13.4268 2.62785 12.6726 3.56498 12.6726H4.60534C5.54247 12.6726 6.30489 13.4268 6.30489 14.3538V14.8144C5.85256 15.9922 5.94615 16.698 5.94615 19.2197H1.86543V14.3538ZM16.7085 20.4296C16.7084 20.4892 16.6847 20.5465 16.6425 20.5887C16.6003 20.6309 16.543 20.6546 16.4833 20.6547H7.5166C7.4569 20.6546 7.39968 20.6309 7.35747 20.5887C7.31526 20.5465 7.29151 20.4892 7.29144 20.4296V16.7543C7.29144 14.5037 9.12247 12.6726 11.3731 12.6726H12.6268C14.8774 12.6726 16.7085 14.5037 16.7085 16.7543V20.4296ZM22.1345 19.2045C22.1345 19.2277 22.3853 19.2197 18.0538 19.2197C18.0538 16.6793 18.1466 15.9902 17.695 14.8144V14.3538C17.695 13.4268 18.4575 12.6726 19.3946 12.6726H20.4349C21.3721 12.6726 22.1345 13.4268 22.1345 14.3538V19.2045ZM4.10759 9.80269C5.46754 9.80269 6.57395 8.69628 6.57395 7.33632C6.57395 5.97637 5.46754 4.86996 4.10759 4.86996C2.74763 4.86996 1.64122 5.97637 1.64122 7.33632C1.64122 8.69628 2.74763 9.80269 4.10759 9.80269ZM4.10759 6.21525C4.72575 6.21525 5.22866 6.71816 5.22866 7.33632C5.22866 7.95448 4.72575 8.4574 4.10759 8.4574C3.48942 8.4574 2.98651 7.95448 2.98651 7.33632C2.98651 6.71816 3.48942 6.21525 4.10759 6.21525Z" fill="#929BA5"/>
</svg>
