<svg width="24" height="24" viewBox="0 0 24 24" fill="none" xmlns="http://www.w3.org/2000/svg">
<path fill-rule="evenodd" clip-rule="evenodd" d="M21 13.2265V9.27905H3V17.8604C3 18.6931 3.33077 19.4917 3.91955 20.0804C4.50833 20.6692 5.30688 21 6.13953 21H13.2265C12.1776 20.3558 11.3678 19.3867 10.9201 18.2401C10.4725 17.0935 10.4115 15.832 10.7464 14.6476C11.0814 13.4631 11.794 12.4205 12.7759 11.6781C13.7577 10.9357 14.9551 10.5343 16.186 10.5349C17.1516 10.5348 18.101 10.7822 18.9437 11.2534C19.7865 11.7246 20.4944 12.4039 21 13.2265ZM3 8.02324H21V7.39533C21 6.56268 20.6692 5.76412 20.0805 5.17535C19.4917 4.58657 18.6931 4.2558 17.8605 4.2558H16.3953V6.55812C16.3953 6.72466 16.3292 6.88437 16.2114 7.00212C16.0937 7.11988 15.934 7.18603 15.7674 7.18603C15.6009 7.18603 15.4412 7.11988 15.3234 7.00212C15.2057 6.88437 15.1395 6.72466 15.1395 6.55812V4.2558H8.86047V6.55812C8.86047 6.72466 8.79431 6.88437 8.67656 7.00212C8.5588 7.11988 8.39909 7.18603 8.23256 7.18603C8.06603 7.18603 7.90632 7.11988 7.78856 7.00212C7.67081 6.88437 7.60465 6.72466 7.60465 6.55812V4.2558H6.13953C5.30688 4.2558 4.50833 4.58657 3.91955 5.17535C3.33077 5.76412 3 6.56268 3 7.39533V8.02324Z" fill="#495969"/>
<path fill-rule="evenodd" clip-rule="evenodd" d="M20.9998 16.186C20.9998 13.5287 18.8432 11.3721 16.1859 11.3721C13.5286 11.3721 11.3719 13.5287 11.3719 16.186C11.3719 18.8433 13.5286 21 16.1859 21C18.8432 21 20.9998 18.8433 20.9998 16.186ZM15.558 14.3023V16.3953C15.558 16.512 15.5905 16.6264 15.6519 16.7256C15.7132 16.8248 15.801 16.905 15.9054 16.9571L17.1612 17.585C17.2351 17.6226 17.3157 17.6452 17.3983 17.6515C17.4809 17.6578 17.564 17.6477 17.6427 17.6218C17.7214 17.5958 17.7942 17.5546 17.8568 17.5003C17.9195 17.4461 17.9708 17.3801 18.0079 17.3059C18.0449 17.2318 18.0668 17.151 18.0725 17.0684C18.0782 16.9857 18.0674 16.9027 18.0409 16.8242C18.0143 16.7457 17.9725 16.6732 17.9178 16.611C17.8631 16.5487 17.7966 16.4979 17.7222 16.4615L16.8138 16.0069V14.3023C16.8138 14.1358 16.7476 13.9761 16.6299 13.8583C16.5121 13.7406 16.3524 13.6744 16.1859 13.6744C16.0194 13.6744 15.8596 13.7406 15.7419 13.8583C15.6241 13.9761 15.558 14.1358 15.558 14.3023ZM7.60449 4.25581H8.86031V3.62791C8.86031 3.46138 8.79415 3.30167 8.6764 3.18391C8.55864 3.06615 8.39893 3 8.2324 3C8.06587 3 7.90616 3.06615 7.7884 3.18391C7.67065 3.30167 7.60449 3.46138 7.60449 3.62791V4.25581ZM15.1394 4.25581H16.3952V3.62791C16.3952 3.46138 16.329 3.30167 16.2113 3.18391C16.0935 3.06615 15.9338 3 15.7673 3C15.6008 3 15.441 3.06615 15.3233 3.18391C15.2055 3.30167 15.1394 3.46138 15.1394 3.62791V4.25581Z" fill="#495969"/>
</svg>
