<svg width="24" height="24" viewBox="0 0 24 24" fill="none" xmlns="http://www.w3.org/2000/svg">
<path d="M8.0693 19.7359C8.24568 19.7258 8.41216 19.6511 8.53706 19.5262L16.5459 11.5174C16.6358 11.4274 16.6864 11.3053 16.6864 11.178C16.6864 11.0507 16.6358 10.9287 16.5459 10.8387L13.1614 7.45465C13.0714 7.36467 12.9493 7.31412 12.822 7.31412C12.6947 7.31412 12.5727 7.36467 12.4827 7.45465L4.47362 15.4632C4.34868 15.5881 4.27403 15.7546 4.26386 15.931L4.0781 19.1614C4.07225 19.2628 4.0879 19.3642 4.12404 19.4591C4.16018 19.554 4.21598 19.6402 4.28779 19.712C4.35959 19.7838 4.44577 19.8396 4.54067 19.8758C4.63557 19.9119 4.73704 19.9276 4.83842 19.9217L8.0693 19.7359ZM13.6704 6.26641C13.6258 6.31099 13.5905 6.36391 13.5663 6.42216C13.5422 6.48041 13.5298 6.54284 13.5298 6.60589C13.5298 6.66895 13.5422 6.73138 13.5663 6.78963C13.5905 6.84788 13.6258 6.9008 13.6704 6.94537L17.0547 10.3296C17.0992 10.3742 17.1522 10.4096 17.2104 10.4337C17.2687 10.4578 17.3311 10.4703 17.3941 10.4703C17.4572 10.4703 17.5196 10.4578 17.5779 10.4337C17.6361 10.4096 17.689 10.3742 17.7336 10.3296L19.8029 8.26033C19.8698 8.19347 19.9228 8.1141 19.959 8.02673C19.9952 7.93937 20.0138 7.84574 20.0138 7.75117C20.0138 7.65661 19.9952 7.56298 19.959 7.47561C19.9228 7.38825 19.8698 7.30887 19.8029 7.24201L16.758 4.19713C16.623 4.06216 16.4399 3.98633 16.249 3.98633C16.0581 3.98633 15.875 4.06216 15.7399 4.19713L13.6704 6.26641Z" fill="#495969"/>
</svg>
