<svg width="24" height="24" viewBox="0 0 24 24" fill="none" xmlns="http://www.w3.org/2000/svg">
<path fill-rule="evenodd" clip-rule="evenodd" d="M17.1753 13.7164H13.2325C13.5579 12.7401 13.7308 11.9184 13.7593 11.2178C13.8265 9.56496 13.0461 8.91078 12.3796 8.65269C12.3517 8.64174 12.3227 8.63396 12.2931 8.62949C11.7767 8.54789 11.5928 8.79086 11.471 9.06544L11.455 9.10144C11.4371 9.14088 11.4255 9.18284 11.4204 9.22583C11.2556 10.6358 10.6535 11.9589 9.69862 13.0093V20.8863C9.80514 20.9254 9.91395 20.9578 10.0244 20.9836C10.0543 20.9906 10.0849 20.9944 10.1157 20.9948C10.4457 20.9984 10.8391 21.0001 11.2929 21.0001C11.7455 21.0001 12.258 20.9983 12.8267 20.9948H16.541C16.7582 20.9949 16.9715 20.9372 17.1591 20.8278C17.3467 20.7183 17.5018 20.561 17.6086 20.3719C17.7155 20.1828 17.7701 19.9687 17.7671 19.7516C17.764 19.5344 17.7033 19.322 17.5912 19.136C17.8391 18.9482 18.0063 18.6731 18.0587 18.3666C18.1112 18.06 18.045 17.745 17.8737 17.4854C18.1142 17.2814 18.2668 16.9925 18.2996 16.6788C18.3324 16.365 18.2429 16.0508 18.0498 15.8014C18.2192 15.6292 18.3339 15.4107 18.3795 15.1735C18.4251 14.9362 18.3996 14.6908 18.3061 14.468C18.2127 14.2453 18.0555 14.0551 17.8543 13.9214C17.6531 13.7877 17.4168 13.7164 17.1753 13.7166V13.7164ZM8.87432 6.64488C8.84936 6.56795 8.80282 6.4998 8.74024 6.44855C8.67767 6.3973 8.60169 6.3651 8.52134 6.35578L7.36958 6.22327L6.88792 5.16953C6.85445 5.09583 6.80046 5.03333 6.73241 4.98949C6.66436 4.94566 6.58513 4.92235 6.50418 4.92235C6.42323 4.92235 6.344 4.94566 6.27595 4.98949C6.2079 5.03333 6.15391 5.09583 6.12043 5.16953L5.63878 6.22327L4.48705 6.35578C4.4067 6.36501 4.3307 6.39713 4.26809 6.44833C4.20548 6.49953 4.15891 6.56765 4.13392 6.64457C4.10893 6.72149 4.10658 6.80397 4.12715 6.88219C4.14771 6.96041 4.19033 7.03107 4.24992 7.08576L5.10361 7.86977L4.87379 9.00595C4.85791 9.08517 4.86509 9.16728 4.89448 9.24254C4.92387 9.3178 4.97423 9.38305 5.03959 9.43055C5.10494 9.47805 5.18255 9.50581 5.26321 9.51052C5.34387 9.51524 5.42418 9.49672 5.49463 9.45716L6.50407 8.88723L7.51373 9.45716C7.58415 9.49691 7.66452 9.51558 7.74525 9.51094C7.82598 9.50631 7.90368 9.47858 7.9691 9.43104C8.03452 9.3835 8.08489 9.31816 8.11423 9.2428C8.14357 9.16745 8.15063 9.08525 8.13457 9.00599L7.90475 7.8698L8.75844 7.08579C8.81797 7.03113 8.86054 6.96052 8.88108 6.88236C8.90162 6.8042 8.89926 6.72178 8.87429 6.64492L8.87432 6.64488ZM19.8657 6.64488C19.8907 6.72174 19.8931 6.80415 19.8726 6.88231C19.8521 6.96048 19.8095 7.03109 19.75 7.08576L18.8962 7.86977L19.126 9.00595C19.1421 9.0852 19.135 9.1674 19.1057 9.24275C19.0763 9.3181 19.026 9.38343 18.9606 9.43097C18.8952 9.47851 18.8175 9.50625 18.7367 9.51089C18.656 9.51552 18.5756 9.49686 18.5052 9.45713L17.4958 8.88719L16.4863 9.45713C16.4158 9.49687 16.3355 9.51554 16.2547 9.51091C16.174 9.50628 16.0963 9.47854 16.0309 9.431C15.9655 9.38346 15.9151 9.31812 15.8858 9.24277C15.8564 9.16741 15.8494 9.08521 15.8654 9.00595L16.0952 7.86977L15.2416 7.08576C15.182 7.03107 15.1394 6.96041 15.1188 6.88219C15.0982 6.80397 15.1006 6.72149 15.1256 6.64457C15.1505 6.56765 15.1971 6.49953 15.2597 6.44833C15.3223 6.39713 15.3983 6.36501 15.4787 6.35578L16.6301 6.22327L17.1119 5.16953C17.1454 5.09584 17.1994 5.03334 17.2674 4.98951C17.3355 4.94568 17.4147 4.92237 17.4956 4.92237C17.5766 4.92237 17.6558 4.94568 17.7238 4.98951C17.7919 5.03334 17.8459 5.09584 17.8793 5.16953L18.3612 6.22327L19.5126 6.35578C19.593 6.36508 19.669 6.39728 19.7315 6.44853C19.7941 6.49978 19.8407 6.56794 19.8656 6.64488H19.8657ZM14.8397 5.06346C14.8147 4.98643 14.7682 4.91817 14.7056 4.86674C14.6431 4.81531 14.5671 4.78285 14.4867 4.7732L13.004 4.60402L12.3836 3.24547C12.3497 3.17218 12.2956 3.11012 12.2276 3.06662C12.1596 3.02312 12.0806 3 11.9998 3C11.9191 3 11.8401 3.02312 11.7721 3.06662C11.7041 3.11012 11.65 3.17218 11.6161 3.24547L10.9957 4.60392L9.51299 4.7731C9.4327 4.78252 9.35679 4.81477 9.29427 4.86604C9.23176 4.91731 9.18526 4.98543 9.1603 5.06232C9.13533 5.13922 9.13295 5.22166 9.15344 5.29987C9.17392 5.37808 9.2164 5.44877 9.27586 5.50356L10.3751 6.51336L10.0791 7.97591C10.0631 8.05515 10.0702 8.13732 10.0996 8.21264C10.1289 8.28796 10.1793 8.35326 10.2447 8.40077C10.3101 8.44828 10.3878 8.476 10.4685 8.48063C10.5492 8.48526 10.6296 8.4666 10.7 8.42687L11.9998 7.69366L13.2997 8.42694C13.3701 8.46666 13.4504 8.48531 13.5311 8.48067C13.6118 8.47604 13.6895 8.44832 13.7549 8.40082C13.8203 8.35331 13.8707 8.28801 13.9 8.2127C13.9294 8.13738 13.9365 8.05522 13.9205 7.97598L13.6246 6.51343L14.7238 5.50356C14.7833 5.44903 14.8259 5.37854 14.8465 5.30049C14.867 5.22245 14.8647 5.14013 14.8398 5.06336L14.8397 5.06346ZM8.85484 13.7927C8.78055 13.6746 8.67751 13.5772 8.55538 13.5097C8.43324 13.4422 8.29599 13.4068 8.15644 13.4067H5.24442C5.02551 13.4069 4.81562 13.4939 4.6608 13.6487C4.50599 13.8035 4.4189 14.0133 4.41864 14.2323V20.1742C4.41882 20.3931 4.50587 20.6031 4.66068 20.758C4.81549 20.9129 5.02542 21.0001 5.24442 21.0004H8.15644C8.29595 21.0003 8.43318 20.9649 8.5553 20.8974C8.67743 20.83 8.78048 20.7327 8.85484 20.6146V13.7927ZM5.4857 14.9564C5.4857 14.8445 5.53015 14.7372 5.60927 14.6581C5.68839 14.579 5.7957 14.5345 5.90759 14.5345H6.21722C6.32912 14.5345 6.43642 14.579 6.51554 14.6581C6.59466 14.7372 6.63911 14.8445 6.63911 14.9564C6.63911 15.0683 6.59466 15.1756 6.51554 15.2548C6.43642 15.3339 6.32912 15.3783 6.21722 15.3783H5.90763C5.85222 15.3783 5.79736 15.3674 5.74617 15.3462C5.69498 15.325 5.64846 15.2939 5.60928 15.2548C5.5701 15.2156 5.53902 15.1691 5.51782 15.1179C5.49662 15.0667 5.4857 15.0118 5.4857 14.9564Z" fill="#495969"/>
</svg>
