<svg width="24" height="24" viewBox="0 0 24 24" fill="none" xmlns="http://www.w3.org/2000/svg">
<path d="M19.0838 22H4.91618C3.85928 22 2.99939 21.1401 2.99939 20.0832V9.99837C2.99939 9.63018 3.29787 9.33167 3.6661 9.33167C4.03433 9.33167 4.33281 9.63018 4.33281 9.99837V20.0832C4.33281 20.4049 4.59449 20.6666 4.91618 20.6666H19.0838C19.4054 20.6666 19.6671 20.4049 19.6671 20.0832V9.99837C19.6671 9.63018 19.9656 9.33167 20.3338 9.33167C20.7021 9.33167 21.0005 9.63018 21.0005 9.99837V20.0832C21.0005 21.1401 20.1407 22 19.0838 22Z" fill="#929BA5" stroke="#929BA5" stroke-width="0.25"/>
<path d="M22.0006 12.3315C21.9131 12.3317 21.8263 12.3145 21.7454 12.2809C21.6645 12.2474 21.5911 12.1982 21.5292 12.1362L13.2375 3.84458C12.5551 3.1622 11.4449 3.1622 10.7625 3.84458L2.47079 12.1363C2.21044 12.3967 1.78829 12.3967 1.52794 12.1363C1.26754 11.8759 1.26754 11.4538 1.52794 11.1934L9.81964 2.90168C11.0219 1.69944 12.9781 1.69944 14.1803 2.90168L22.472 11.1934C22.7324 11.4538 22.7324 11.8759 22.472 12.1362C22.4102 12.1983 22.3367 12.2474 22.2558 12.281C22.1749 12.3145 22.0882 12.3317 22.0006 12.3315ZM14.6668 21.9999H9.33315C8.96491 21.9999 8.66644 21.7014 8.66644 21.3332V15.4161C8.66644 14.2673 9.60108 13.3326 10.7499 13.3326H13.2501C14.3989 13.3326 15.3335 14.2673 15.3335 15.4161V21.3332C15.3335 21.7014 15.0351 21.9999 14.6668 21.9999ZM9.99986 20.6665H14.0001V15.4161C14.0001 15.0025 13.6636 14.6661 13.2501 14.6661H10.7499C10.3363 14.6661 9.99986 15.0025 9.99986 15.4161V20.6665Z" fill="#929BA5" stroke="#929BA5" stroke-width="0.25"/>
</svg>
