<svg width="24" height="24" viewBox="0 0 24 24" fill="none" xmlns="http://www.w3.org/2000/svg">
<path d="M12.0001 3C8.27854 3 5.25 6.04954 5.25 9.79884C5.25 15.1262 11.3656 20.6267 11.6258 20.8577C11.7287 20.9498 11.8619 21.0008 11.9999 21.0009C12.138 21.0011 12.2713 20.9504 12.3743 20.8585C12.6346 20.6267 18.7502 15.1262 18.7502 9.79884C18.7502 6.04954 15.7216 3 12.0001 3ZM12.0001 13.5001C9.93231 13.5001 8.25004 11.8179 8.25004 9.75009C8.25004 7.68231 9.93231 6.00004 12.0001 6.00004C14.0679 6.00004 15.7501 7.68231 15.7501 9.75009C15.7501 11.8179 14.0679 13.5001 12.0001 13.5001Z" fill="#495969"/>
</svg>
