<svg width="24" height="24" viewBox="0 0 24 24" fill="none" xmlns="http://www.w3.org/2000/svg">
<path d="M10.275 10.6875C11.3625 11.25 12.6375 11.25 13.6875 10.6875L19.5749 7.68752L20.9249 7.01252C20.4374 5.96252 19.35 5.21252 18.075 5.21252H5.92495C4.68745 5.21252 3.59995 5.96252 3.07495 7.01252L4.42495 7.68752L10.275 10.6875Z" fill="#495969"/>
<path d="M14.4 12.0375C13.65 12.4125 12.825 12.6 12 12.6C11.175 12.6 10.35 12.4125 9.60005 12.0375L4.23755 9.30005L2.73755 8.55005V15.675C2.73755 17.4 4.16255 18.825 5.88755 18.825H18.075C19.8 18.825 21.225 17.4 21.225 15.675V8.55005L19.725 9.30005L14.4 12.0375Z" fill="#495969"/>
</svg>
