<svg width="24" height="24" viewBox="0 0 24 24" fill="none" xmlns="http://www.w3.org/2000/svg">
<path d="M21.5664 17.2571C20.9421 16.7336 17.2807 14.415 16.6721 14.5214C16.3864 14.5721 16.1679 14.8157 15.5829 15.5136C15.3123 15.8571 15.0152 16.1788 14.6943 16.4757C14.1063 16.3337 13.5371 16.1227 12.9986 15.8471C10.8866 14.8189 9.18045 13.1122 8.15286 11C7.87731 10.4615 7.66633 9.8923 7.52429 9.30429C7.82124 8.98336 8.14294 8.68625 8.48643 8.41571C9.18357 7.83071 9.42786 7.61357 9.47857 7.32643C9.585 6.71643 7.26429 3.05643 6.74286 2.43214C6.52429 2.17357 6.32571 2 6.07143 2C5.33429 2 2 6.12286 2 6.65714C2 6.70071 2.07143 10.9929 7.49214 16.5079C13.0071 21.9286 17.2993 22 17.3429 22C17.8771 22 22 18.6657 22 17.9286C22 17.6743 21.8264 17.4757 21.5664 17.2571ZM17 11.2857H18.4286C18.4269 9.77071 17.8243 8.31825 16.753 7.24698C15.6817 6.17572 14.2293 5.57313 12.7143 5.57143V7C13.8506 7.00113 14.94 7.45303 15.7435 8.25651C16.547 9.05999 16.9989 10.1494 17 11.2857Z" fill="#495969"/>
<path d="M20.5715 11.2857H22.0001C21.9972 8.82386 21.018 6.46365 19.2772 4.72285C17.5364 2.98206 15.1762 2.00284 12.7144 2V3.42857C14.7974 3.43103 16.7945 4.25962 18.2675 5.73259C19.7404 7.20556 20.569 9.20262 20.5715 11.2857Z" fill="#495969"/>
</svg>
