<svg width="24" height="24" viewBox="0 0 24 24" fill="none" xmlns="http://www.w3.org/2000/svg">
<path d="M12 8.36363C9.99092 8.36363 8.36367 9.99092 8.36367 12C8.36367 14.009 9.99092 15.6364 12 15.6364C14.0091 15.6364 15.6364 14.0091 15.6364 12C15.6364 9.99096 14.0091 8.36363 12 8.36363ZM20.1273 11.0909C19.7091 7.29999 16.7 4.29091 12.9091 3.87274V2H11.0909V3.87274C7.29999 4.29091 4.29091 7.29999 3.87274 11.0909H2V12.9091H3.87274C4.29091 16.7 7.30003 19.7091 11.0909 20.1273V22.0001H12.9091V20.1273C16.7 19.7091 19.7091 16.7 20.1273 12.9091H22.0001V11.0909H20.1273ZM12 18.3637C8.4864 18.3637 5.6364 15.5137 5.6364 12C5.6364 8.4864 8.4864 5.6364 12 5.6364C15.5137 5.6364 18.3637 8.48636 18.3637 12C18.3637 15.5137 15.5137 18.3637 12 18.3637Z" fill="#495969"/>
</svg>
