<svg width="24" height="24" viewBox="0 0 24 24" fill="none" xmlns="http://www.w3.org/2000/svg">
<path d="M12 24C13.4387 24 14.6776 23.131 15.2212 21.8906H8.77876C9.32237 23.131 10.5613 24 12 24ZM19.2656 11.6185V10.0781C19.2656 6.80522 17.0901 4.0312 14.1093 3.12516V2.10938C14.1093 0.946266 13.1631 0 12 0C10.8369 0 9.89059 0.946266 9.89059 2.10938V3.12516C6.90981 4.0312 4.73434 6.80517 4.73434 10.0781V11.6185C4.73434 14.4935 3.63849 17.2195 1.6487 19.2946C1.55329 19.3941 1.48922 19.5194 1.46445 19.6549C1.43968 19.7905 1.45531 19.9304 1.50938 20.0572C1.56346 20.1839 1.6536 20.292 1.7686 20.368C1.8836 20.4439 2.01839 20.4844 2.15621 20.4844H21.8437C21.9815 20.4844 22.1163 20.4439 22.2313 20.3679C22.3463 20.292 22.4364 20.1839 22.4905 20.0571C22.5445 19.9304 22.5602 19.7905 22.5354 19.6549C22.5107 19.5194 22.4466 19.3941 22.3512 19.2946C20.3614 17.2195 19.2656 14.4934 19.2656 11.6185ZM12.7031 2.84663C12.4717 2.82431 12.2372 2.8125 12 2.8125C11.7628 2.8125 11.5283 2.82431 11.2968 2.84663V2.10938C11.2968 1.72167 11.6123 1.40625 12 1.40625C12.3877 1.40625 12.7031 1.72167 12.7031 2.10938V2.84663ZM21.1406 10.0781C21.1406 10.4664 21.4554 10.7812 21.8437 10.7812C22.232 10.7812 22.5468 10.4664 22.5468 10.0781C22.5468 7.26094 21.4498 4.61236 19.4577 2.62031C19.1832 2.34577 18.738 2.34572 18.4634 2.62031C18.1888 2.89491 18.1888 3.34008 18.4634 3.61467C20.1898 5.34113 21.1406 7.63655 21.1406 10.0781ZM2.15621 10.7812C2.54453 10.7812 2.85934 10.4664 2.85934 10.0781C2.85934 7.63659 3.81015 5.34117 5.53656 3.61472C5.81115 3.34012 5.81115 2.89495 5.53656 2.62036C5.26201 2.34577 4.81679 2.34577 4.5422 2.62036C2.55015 4.61241 1.45309 7.26094 1.45309 10.0781C1.45309 10.4664 1.7679 10.7812 2.15621 10.7812Z" fill="#495969"/>
</svg>
