<svg width="24" height="24" viewBox="0 0 24 24" fill="none" xmlns="http://www.w3.org/2000/svg">
<path d="M19.0746 4.92582C15.1727 1.02473 8.82708 1.02473 4.92517 4.92582C1.02494 8.8269 1.02494 15.1741 4.92517 19.0752C6.87612 21.0254 9.4382 22 12.0003 22C14.5624 22 17.1236 21.0253 19.0746 19.0752C22.9757 15.1742 22.9757 8.8269 19.0746 4.92582ZM16.1265 14.9482C16.4524 15.2742 16.4524 15.8011 16.1265 16.1271C16.0491 16.2046 15.9573 16.2661 15.8561 16.3081C15.7549 16.35 15.6465 16.3715 15.537 16.3714C15.4275 16.3715 15.3191 16.35 15.2179 16.3081C15.1167 16.2661 15.0249 16.2046 14.9475 16.1271L12.0003 13.179L9.05383 16.1263C8.89747 16.2826 8.68546 16.3704 8.46436 16.3706C8.35486 16.3706 8.24642 16.3491 8.14526 16.3072C8.0441 16.2653 7.95222 16.2038 7.87489 16.1263C7.54891 15.8003 7.54891 15.2725 7.87489 14.9474L10.8213 12.0001L7.87407 9.05283C7.54809 8.72685 7.54809 8.1991 7.87407 7.87394C8.19923 7.54796 8.72699 7.54796 9.05297 7.87394L12.0002 10.8212L14.9475 7.87394C15.2735 7.54796 15.8004 7.54796 16.1264 7.87394C16.4524 8.1991 16.4524 8.72685 16.1264 9.05283L13.1791 12.0001L16.1265 14.9482Z" fill="#D65E5E"/>
</svg>
