<svg width="24" height="24" viewBox="0 0 24 24" fill="none" xmlns="http://www.w3.org/2000/svg">
<path d="M10.9126 10.9127L5.76392 5.76397" stroke="#929BA5" stroke-width="1.2" stroke-miterlimit="10" stroke-linecap="round" stroke-linejoin="round"/>
<path d="M6.7908 4.73713L4.73698 6.79095L2.82983 4.29705L4.29685 2.82999L6.7908 4.73713Z" stroke="#929BA5" stroke-width="1.2" stroke-miterlimit="10" stroke-linecap="round" stroke-linejoin="round"/>
<path d="M16.4956 13.2684L21.7804 18.5532C22.073 18.8458 22.073 19.3201 21.7804 19.6126L19.6124 21.7807C19.3198 22.0732 18.8455 22.0732 18.5529 21.7807L13.2681 16.4958C13.5416 15.1233 12.0955 14.0797 12.0955 14.0797L14.0794 12.0957C14.0794 12.0957 15.123 13.5418 16.4956 13.2684Z" stroke="#929BA5" stroke-width="1.2" stroke-miterlimit="10" stroke-linecap="round" stroke-linejoin="round"/>
<path d="M8.37498 20.9063C7.22515 22.0562 5.51253 22.2994 4.12443 21.636L6.37394 19.3865L6.05796 17.9415L4.61327 17.6264L2.36401 19.8756C1.7009 18.4878 1.94356 16.7746 3.09372 15.625C4.16431 14.5544 5.72348 14.2698 7.05407 14.7712L14.7712 7.05409C14.2698 5.7235 14.5544 4.16437 15.625 3.09371C16.7746 1.94358 18.4878 1.70092 19.8755 2.36403L17.6263 4.61325L17.9414 6.05799L19.3865 6.37396L21.636 4.12445C22.2994 5.51255 22.0561 7.22517 20.9063 8.375C19.8357 9.44563 18.2768 9.73053 16.9462 9.22911L9.22909 16.9462C9.7305 18.2768 9.44561 19.8357 8.37498 20.9063Z" stroke="#929BA5" stroke-width="1.2" stroke-miterlimit="10" stroke-linecap="round" stroke-linejoin="round"/>
<path d="M13.2683 16.4958L16.4957 13.2684" stroke="#929BA5" stroke-width="1.2" stroke-miterlimit="10" stroke-linecap="round" stroke-linejoin="round"/>
</svg>
