<svg width="24" height="24" viewBox="0 0 24 24" fill="none" xmlns="http://www.w3.org/2000/svg">
<path d="M12 8.25C9.93225 8.25 8.25 9.93225 8.25 12C8.25 14.0677 9.93225 15.75 12 15.75C14.0677 15.75 15.75 14.0677 15.75 12C15.75 9.93225 14.0677 8.25 12 8.25ZM12 14.25C10.7595 14.25 9.75 13.2405 9.75 12C9.75 10.7595 10.7595 9.75 12 9.75C13.2405 9.75 14.25 10.7595 14.25 12C14.25 13.2405 13.2405 14.25 12 14.25Z" fill="#929BA5" stroke="#929BA5" stroke-width="0.25"/>
<path d="M20.6445 13.527L20.25 13.299C19.7805 13.0283 19.5 12.5422 19.5 12C19.5 11.4578 19.7805 10.9717 20.25 10.701L20.6445 10.473C20.9005 10.3254 21.1249 10.1288 21.3049 9.89438C21.4849 9.65999 21.6169 9.39241 21.6934 9.10696C21.7698 8.82151 21.7893 8.52378 21.7506 8.2308C21.712 7.93782 21.6159 7.65533 21.468 7.3995L20.718 6.1005C20.4192 5.58419 19.9277 5.20751 19.3515 5.05313C18.7753 4.89874 18.1614 4.97925 17.6445 5.277L17.25 5.50425C17.0225 5.63761 16.7636 5.70792 16.5 5.70792C16.2363 5.70792 15.9774 5.63761 15.75 5.50425C15.5209 5.37378 15.3307 5.18469 15.1989 4.9564C15.0671 4.72811 14.9984 4.46885 15 4.20525V3.75C15 2.5095 13.9905 1.5 12.75 1.5H11.25C10.0095 1.5 8.99998 2.5095 8.99998 3.75V4.206C9.00151 4.4696 8.93285 4.72886 8.80104 4.95715C8.66924 5.18544 8.47904 5.37453 8.24998 5.505C8.02246 5.63814 7.76359 5.70831 7.49998 5.70831C7.23637 5.70831 6.9775 5.63814 6.74998 5.505L6.35548 5.277C5.8384 4.97942 5.22443 4.899 4.64815 5.05336C4.07188 5.20773 3.58032 5.58429 3.28123 6.1005L2.53123 7.3995C2.3833 7.65533 2.28725 7.93782 2.24858 8.2308C2.20991 8.52378 2.22937 8.82151 2.30586 9.10696C2.38234 9.39241 2.51434 9.65999 2.69432 9.89438C2.87429 10.1288 3.09871 10.3254 3.35473 10.473L3.74998 10.701C4.21948 10.9717 4.49998 11.4578 4.49998 12C4.49998 12.5422 4.21948 13.0283 3.74998 13.299L3.35548 13.527C3.09946 13.6746 2.87504 13.8712 2.69507 14.1056C2.51509 14.34 2.38309 14.6076 2.30661 14.893C2.23012 15.1785 2.21066 15.4762 2.24933 15.7692C2.288 16.0622 2.38405 16.3447 2.53198 16.6005L3.28198 17.8995C3.58092 18.4157 4.07235 18.7922 4.6485 18.9466C5.22466 19.1009 5.83852 19.0205 6.35548 18.723L6.74998 18.4958C6.97743 18.3624 7.23632 18.2921 7.49998 18.2921C7.76364 18.2921 8.02254 18.3624 8.24998 18.4958C8.47904 18.6262 8.66924 18.8153 8.80104 19.0436C8.93285 19.2719 9.00151 19.5311 8.99998 19.7948V20.25C8.99998 21.4905 10.0095 22.5 11.25 22.5H12.75C13.9905 22.5 15 21.4905 15 20.25V19.794C15 19.2518 15.2805 18.7665 15.75 18.495C15.9775 18.3619 16.2364 18.2917 16.5 18.2917C16.7636 18.2917 17.0225 18.3619 17.25 18.495L17.6445 18.723C18.1615 19.0203 18.7753 19.1006 19.3514 18.9463C19.9275 18.7919 20.4189 18.4155 20.718 17.8995L21.468 16.6005C21.6159 16.3447 21.712 16.0622 21.7506 15.7692C21.7893 15.4762 21.7698 15.1785 21.6934 14.893C21.6169 14.6076 21.4849 14.34 21.3049 14.1056C21.1249 13.8712 20.9005 13.6746 20.6445 13.527ZM20.169 15.8505L19.419 17.1495C19.3195 17.3218 19.1557 17.4474 18.9636 17.4989C18.7715 17.5504 18.5667 17.5235 18.3945 17.424L18 17.196C17.0602 16.6537 15.939 16.6537 15 17.196C14.061 17.7382 13.5 18.7095 13.5 19.794V20.25C13.5 20.6632 13.1632 21 12.75 21H11.25C10.8367 21 10.5 20.6632 10.5 20.25V19.794C10.5 18.7095 9.93898 17.7382 8.99998 17.196C8.06098 16.6537 6.93898 16.6537 5.99998 17.196L5.60548 17.424C5.52021 17.4733 5.42605 17.5054 5.32838 17.5183C5.23071 17.5312 5.13146 17.5247 5.0363 17.4992C4.94114 17.4737 4.85194 17.4297 4.77381 17.3697C4.69568 17.3097 4.63016 17.2349 4.58098 17.1495L3.83098 15.8505C3.73153 15.6782 3.70458 15.4735 3.75606 15.2814C3.80753 15.0893 3.93323 14.9255 4.10548 14.826L4.49998 14.598C5.43898 14.0558 5.99998 13.0845 5.99998 12C5.99998 10.9155 5.43898 9.94425 4.49998 9.402L4.10548 9.174C3.93323 9.07454 3.80753 8.91073 3.75606 8.7186C3.70458 8.52647 3.73153 8.32176 3.83098 8.1495L4.58098 6.8505C4.68058 6.6784 4.84439 6.55284 5.03646 6.50138C5.22853 6.44991 5.43317 6.47675 5.60548 6.576L5.99998 6.804C6.93973 7.34625 8.06098 7.34625 8.99998 6.804C9.93898 6.26175 10.5 5.2905 10.5 4.206V3.75C10.5 3.33675 10.8367 3 11.25 3H12.75C13.1632 3 13.5 3.33675 13.5 3.75V4.206C13.5 5.2905 14.061 6.26175 15 6.804C15.939 7.34625 17.061 7.34625 18 6.804L18.3945 6.576C18.5667 6.47655 18.7715 6.4496 18.9636 6.50108C19.1557 6.55255 19.3195 6.67825 19.419 6.8505L20.169 8.1495C20.2684 8.32176 20.2954 8.52647 20.2439 8.7186C20.1924 8.91073 20.0667 9.07454 19.8945 9.174L19.5 9.402C18.561 9.94425 18 10.9155 18 12C18 13.0845 18.561 14.0558 19.5 14.598L19.8945 14.826C20.0667 14.9255 20.1924 15.0893 20.2439 15.2814C20.2954 15.4735 20.2684 15.6782 20.169 15.8505Z" fill="#929BA5" stroke="#929BA5" stroke-width="0.25"/>
</svg>
