<svg width="24" height="24" viewBox="0 0 24 24" fill="none" xmlns="http://www.w3.org/2000/svg">
<path d="M12.5278 4.55556H11.6722C11.4155 3.66111 10.5911 3 9.61108 3C8.63108 3 7.80664 3.66111 7.54997 4.55556H6.69442C6.37553 4.55556 6.11108 4.82 6.11108 5.13889V6.30556C6.11108 7.05222 6.72553 7.66667 7.4722 7.66667H11.75C12.4966 7.66667 13.1111 7.05222 13.1111 6.30556V5.13889C13.1111 4.82 12.8466 4.55556 12.5278 4.55556Z" fill="#495969"/>
<path d="M14.0833 5.33331H13.8889V6.30554C13.8889 7.48776 12.9322 8.44442 11.75 8.44442H7.47222C6.29 8.44442 5.33333 7.48776 5.33333 6.30554V5.33331H5.13889C3.95667 5.33331 3 6.28998 3 7.4722V17.1944C3 18.3766 3.95667 19.3333 5.13889 19.3333H10.8789L11.05 18.3766C11.1278 17.9411 11.33 17.5522 11.6411 17.2333L12.2633 16.6111H5.91667C5.59778 16.6111 5.33333 16.3466 5.33333 16.0278C5.33333 15.7089 5.59778 15.4444 5.91667 15.4444H13.3056C13.3444 15.4444 13.3756 15.4444 13.4144 15.46H13.4222L16.2222 12.66V7.4722C16.2222 6.28998 15.2656 5.33331 14.0833 5.33331ZM13.3056 14.0833H5.91667C5.59778 14.0833 5.33333 13.8189 5.33333 13.5C5.33333 13.1811 5.59778 12.9166 5.91667 12.9166H13.3056C13.6244 12.9166 13.8889 13.1811 13.8889 13.5C13.8889 13.8189 13.6244 14.0833 13.3056 14.0833ZM13.3056 11.5555H5.91667C5.59778 11.5555 5.33333 11.2911 5.33333 10.9722C5.33333 10.6533 5.59778 10.3889 5.91667 10.3889H13.3056C13.6244 10.3889 13.8889 10.6533 13.8889 10.9722C13.8889 11.2911 13.6244 11.5555 13.3056 11.5555ZM12.7432 21.6666C12.6579 21.6669 12.5736 21.6483 12.4963 21.6124C12.419 21.5764 12.3505 21.5238 12.2958 21.4585C12.241 21.3931 12.2013 21.3165 12.1794 21.234C12.1575 21.1516 12.1541 21.0654 12.1692 20.9814L12.5814 18.6442C12.6023 18.5264 12.6588 18.4178 12.7432 18.3331L18.5182 12.5589C19.2276 11.848 19.9244 12.0401 20.3056 12.4212L21.2677 13.3833C21.3941 13.5097 21.4943 13.6598 21.5628 13.8249C21.6312 13.9901 21.6664 14.1671 21.6664 14.3458C21.6664 14.5246 21.6312 14.7016 21.5628 14.8667C21.4943 15.0319 21.3941 15.1819 21.2677 15.3083L15.4927 21.0833C15.4083 21.1683 15.2996 21.2249 15.1816 21.2451L12.8443 21.6573C12.811 21.6635 12.7771 21.6666 12.7432 21.6666Z" fill="#495969"/>
</svg>
