<svg width="24" height="24" viewBox="0 0 24 24" fill="none" xmlns="http://www.w3.org/2000/svg">
<path d="M20.616 17.25L20.2313 18.9188C20.1931 19.0841 20.1 19.2316 19.9672 19.3371C19.8344 19.4427 19.6697 19.5001 19.5 19.5H4.5C4.33034 19.5001 4.16566 19.4427 4.03284 19.3371C3.90002 19.2316 3.80693 19.0841 3.76875 18.9188L3.384 17.25H20.616ZM22.4813 9.16878L20.9625 15.75H3.0375L1.51875 9.16878C1.48628 9.02672 1.49586 8.87828 1.54631 8.74157C1.59676 8.60486 1.6859 8.48579 1.80287 8.39888C1.91984 8.31197 2.05957 8.26098 2.20502 8.25212C2.35048 8.24327 2.49536 8.27694 2.622 8.34903L7.26375 11.0018L11.3753 4.83453C11.5095 4.63353 11.7315 4.50903 11.9723 4.50003C12.0912 4.4951 12.2095 4.51883 12.3173 4.56922C12.4251 4.6196 12.5193 4.69516 12.5918 4.78953L17.4135 10.989L21.3338 8.37603C21.4589 8.29327 21.6059 8.24987 21.7559 8.25138C21.9059 8.2529 22.052 8.29928 22.1755 8.38455C22.2989 8.46981 22.394 8.59007 22.4485 8.72983C22.503 8.86959 22.5144 9.02247 22.4813 9.16878Z" fill="#495969"/>
</svg>
