<svg width="24" height="24" viewBox="0 0 24 24" fill="none" xmlns="http://www.w3.org/2000/svg">
<path d="M12 6.54543C13.2552 6.54543 14.2727 5.5279 14.2727 4.27272C14.2727 3.01753 13.2552 2 12 2C10.7448 2 9.72729 3.01753 9.72729 4.27272C9.72729 5.5279 10.7448 6.54543 12 6.54543Z" fill="#495969"/>
<path d="M8.88307 11.0909H15.1171C15.6542 11.0909 16.091 10.6195 16.091 10.0398V9.74858C16.091 8.98908 15.715 8.29529 15.1091 7.93793C14.3833 7.51 13.255 7 12.0001 7C10.7452 7 9.61684 7.51004 8.89108 7.93793C8.28516 8.29524 7.90918 8.98908 7.90918 9.74858V10.0398C7.90918 10.6195 8.34597 11.0909 8.88307 11.0909Z" fill="#495969"/>
<path d="M6.09083 17.4545C7.34602 17.4545 8.36354 16.437 8.36354 15.1818C8.36354 13.9266 7.34602 12.9091 6.09083 12.9091C4.83564 12.9091 3.81812 13.9266 3.81812 15.1818C3.81812 16.437 4.83564 17.4545 6.09083 17.4545Z" fill="#495969"/>
<path d="M9.19992 18.847C8.47417 18.4191 7.3458 17.9091 6.09091 17.9091C4.83602 17.9091 3.70766 18.4192 2.9819 18.847C2.37598 19.2044 2 19.8982 2 20.6577V20.9488C2 21.5286 2.43679 22 2.97389 22H9.20793C9.74503 22 10.1818 21.5286 10.1818 20.9488V20.6577C10.1818 19.8982 9.80584 19.2044 9.19992 18.847Z" fill="#495969"/>
<path d="M17.9092 17.4545C19.1644 17.4545 20.1819 16.437 20.1819 15.1818C20.1819 13.9266 19.1644 12.9091 17.9092 12.9091C16.654 12.9091 15.6365 13.9266 15.6365 15.1818C15.6365 16.437 16.654 17.4545 17.9092 17.4545Z" fill="#495969"/>
<path d="M21.0181 18.847C20.2924 18.4191 19.164 17.9091 17.9091 17.9091C16.6543 17.9091 15.5259 18.4192 14.8001 18.847C14.1942 19.2044 13.8182 19.8982 13.8182 20.6577V20.9489C13.8182 21.5286 14.255 22 14.7921 22H21.0262C21.5633 22 22.0001 21.5286 22.0001 20.9489V20.6577C22 19.8981 21.624 19.2044 21.0181 18.847ZM14.2723 17.4546C14.4059 17.4546 14.5378 17.396 14.6279 17.2841C14.7846 17.0879 14.7526 16.802 14.5568 16.6449L12.4546 14.9631V12.4546C12.4546 12.2033 12.2513 12 12 12C11.7488 12 11.5455 12.2033 11.5455 12.4545V14.9634L9.44321 16.6448C9.24744 16.802 9.21548 17.0879 9.37217 17.2841C9.4623 17.3959 9.5941 17.4545 9.72774 17.4545C9.82716 17.4545 9.92751 17.4221 10.0114 17.3551L12 15.7642L13.9886 17.3551C14.0691 17.4196 14.1692 17.4547 14.2723 17.4546Z" fill="#495969"/>
</svg>
