<svg width="24" height="24" viewBox="0 0 24 24" fill="none" xmlns="http://www.w3.org/2000/svg">
<path d="M12 3C10.22 3 8.47991 3.52784 6.99987 4.51677C5.51983 5.50571 4.36628 6.91131 3.68509 8.55585C3.0039 10.2004 2.82567 12.01 3.17294 13.7558C3.5202 15.5016 4.37737 17.1053 5.63604 18.364C6.89472 19.6226 8.49836 20.4798 10.2442 20.8271C11.99 21.1743 13.7996 20.9961 15.4442 20.3149C17.0887 19.6337 18.4943 18.4802 19.4832 17.0001C20.4722 15.5201 21 13.78 21 12C20.9972 9.61392 20.0481 7.32637 18.3609 5.63915C16.6736 3.95193 14.3861 3.00281 12 3ZM15.033 15.033C14.8796 15.1864 14.6715 15.2726 14.4545 15.2726C14.2376 15.2726 14.0295 15.1864 13.8761 15.033L11.4215 12.5785C11.2681 12.4251 11.1819 12.217 11.1818 12V7.09091C11.1818 6.87391 11.268 6.66581 11.4215 6.51237C11.5749 6.35893 11.783 6.27273 12 6.27273C12.217 6.27273 12.4251 6.35893 12.5785 6.51237C12.732 6.66581 12.8182 6.87391 12.8182 7.09091V11.6613L15.033 13.8761C15.1864 14.0295 15.2726 14.2376 15.2726 14.4545C15.2726 14.6715 15.1864 14.8796 15.033 15.033Z" fill="#495969"/>
</svg>
