<svg width="24" height="24" viewBox="0 0 24 24" fill="none" xmlns="http://www.w3.org/2000/svg">
<path fill-rule="evenodd" clip-rule="evenodd" d="M9.51502 3.67771C9.51502 3.49797 9.58642 3.32559 9.71352 3.1985C9.84061 3.0714 10.013 3 10.1927 3H13.8072C13.9869 3 14.1593 3.0714 14.2864 3.1985C14.4135 3.32559 14.4849 3.49797 14.4849 3.67771C14.4849 3.85745 14.4135 4.02983 14.2864 4.15692C14.1593 4.28402 13.9869 4.35542 13.8072 4.35542H10.1927C10.013 4.35542 9.84061 4.28402 9.71352 4.15692C9.58642 4.02983 9.51502 3.85745 9.51502 3.67771ZM20.1325 13.6175C20.1325 14.6854 19.9221 15.743 19.5134 16.7297C19.1047 17.7163 18.5057 18.6129 17.7505 19.368C16.9954 20.1232 16.0988 20.7222 15.1121 21.1309C14.1255 21.5396 13.0679 21.75 12 21.75C10.932 21.75 9.87446 21.5396 8.88778 21.1309C7.90109 20.7222 7.00457 20.1232 6.24939 19.368C5.49422 18.6129 4.89518 17.7163 4.48648 16.7297C4.07779 15.743 3.86743 14.6854 3.86743 13.6175C3.86743 11.4606 4.72425 9.39205 6.24939 7.8669C7.77454 6.34176 9.84308 5.48494 12 5.48494C14.1568 5.48494 16.2254 6.34176 17.7505 7.8669C19.2757 9.39205 20.1325 11.4606 20.1325 13.6175ZM12.9271 11.1551C12.6959 10.9945 12.4596 10.8414 12.2186 10.6961C11.2491 10.1069 10.7647 9.81235 10.3301 10.1386C9.89635 10.4639 9.85659 11.147 9.77707 12.5133C9.75538 12.8991 9.74093 13.2777 9.74093 13.6175C9.74093 13.9572 9.75538 14.3358 9.77707 14.7217C9.85659 16.088 9.89635 16.7702 10.3301 17.0964C10.7638 17.4226 11.25 17.128 12.2186 16.5389C12.4698 16.3861 12.7129 16.2307 12.9271 16.0798C13.171 15.9081 13.4376 15.7021 13.706 15.4834C14.6774 14.691 15.1626 14.2952 15.1626 13.6175C15.1626 12.9398 14.6774 12.544 13.706 11.7515C13.4376 11.5328 13.1719 11.3268 12.9271 11.1551Z" fill="#495969"/>
</svg>
