<svg width="24" height="24" viewBox="0 0 24 24" fill="none" xmlns="http://www.w3.org/2000/svg">
<path d="M12 2C10.0222 2 8.08879 2.58649 6.4443 3.6853C4.79981 4.78412 3.51809 6.3459 2.76121 8.17317C2.00433 10.0004 1.8063 12.0111 2.19215 13.9509C2.578 15.8907 3.53041 17.6725 4.92894 19.0711C6.32746 20.4696 8.10929 21.422 10.0491 21.8079C11.9889 22.1937 13.9996 21.9957 15.8268 21.2388C17.6541 20.4819 19.2159 19.2002 20.3147 17.5557C21.4135 15.9112 22 13.9778 22 12C22 9.34784 20.9464 6.8043 19.0711 4.92893C17.1957 3.05357 14.6522 2 12 2ZM15.9467 10.92C15.8967 11.0417 15.8117 11.146 15.7026 11.2195C15.5934 11.2931 15.465 11.3327 15.3333 11.3333H14V16C14 16.1768 13.9298 16.3464 13.8047 16.4714C13.6797 16.5964 13.5101 16.6667 13.3333 16.6667H10.6667C10.4899 16.6667 10.3203 16.5964 10.1953 16.4714C10.0702 16.3464 10 16.1768 10 16V11.3333H8.66667C8.53505 11.3327 8.40658 11.2931 8.29743 11.2195C8.18828 11.146 8.10335 11.0417 8.05334 10.92C8.00229 10.7986 7.98834 10.6648 8.01325 10.5355C8.03817 10.4061 8.10083 10.2871 8.19334 10.1933L11.5267 6.86C11.5886 6.79751 11.6624 6.74792 11.7436 6.71407C11.8249 6.68023 11.912 6.6628 12 6.6628C12.088 6.6628 12.1751 6.68023 12.2564 6.71407C12.3376 6.74792 12.4114 6.79751 12.4733 6.86L15.8067 10.1933C15.8992 10.2871 15.9618 10.4061 15.9868 10.5355C16.0117 10.6648 15.9977 10.7986 15.9467 10.92Z" fill="#495969"/>
</svg>
