<svg width="24" height="24" viewBox="0 0 24 24" fill="none" xmlns="http://www.w3.org/2000/svg">
<path d="M21.3692 6.80869C20.8751 6.31295 20.2411 5.98014 19.5525 5.85489C19.4108 5.05571 18.9927 4.33179 18.3711 3.80986C17.7495 3.28794 16.9642 3.00125 16.1525 3H5.07685C4.62215 3 4.17192 3.08967 3.75191 3.26387C3.33191 3.43807 2.95038 3.69339 2.62916 4.01521C2.30794 4.33703 2.05333 4.71904 1.87992 5.13937C1.70651 5.5597 1.61768 6.01011 1.61854 6.4648V17.534C1.61854 18.4512 1.98289 19.3308 2.63145 19.9794C3.28001 20.628 4.15965 20.9923 5.07685 20.9923H18.9231C19.8403 20.9923 20.7199 20.628 21.3685 19.9794C22.017 19.3308 22.3814 18.4512 22.3814 17.534V9.22886C22.3771 8.32008 22.0131 7.44997 21.3692 6.80869ZM3.61047 4.99194C3.80249 4.79845 4.03094 4.64493 4.28263 4.54025C4.53432 4.43556 4.80426 4.38179 5.07685 4.38203H16.1525C16.58 4.3832 16.9966 4.51668 17.3451 4.76414C17.6937 5.0116 17.957 5.3609 18.0991 5.76406H5.07685C4.32587 5.7654 3.59622 6.01394 3.00056 6.47129C3.00161 5.91719 3.22071 5.38577 3.61047 4.99194ZM20.3895 19.0069C20.1975 19.2004 19.969 19.3539 19.7173 19.4586C19.4656 19.5633 19.1957 19.617 18.9231 19.6168H5.07685C4.52619 19.6168 3.99807 19.398 3.6087 19.0087C3.21932 18.6193 3.00056 18.0912 3.00056 17.5405V9.22886C3.00056 8.67819 3.21932 8.15008 3.6087 7.7607C3.99807 7.37133 4.52619 7.15257 5.07685 7.15257H18.9231C19.4738 7.15257 20.0019 7.37133 20.3912 7.7607C20.7806 8.15008 20.9994 8.67819 20.9994 9.22886V10.6174H16.8468C16.2961 10.6174 15.768 10.8361 15.3786 11.2255C14.9893 11.6149 14.7705 12.143 14.7705 12.6937V14.0757C14.7705 14.6264 14.9893 15.1545 15.3786 15.5438C15.768 15.9332 16.2961 16.152 16.8468 16.152H20.9994V17.534C21.0005 17.8077 20.9471 18.0789 20.8424 18.3317C20.7377 18.5846 20.5837 18.8141 20.3895 19.0069ZM20.9994 14.77H16.8468C16.6627 14.77 16.4861 14.6968 16.3559 14.5666C16.2257 14.4364 16.1525 14.2598 16.1525 14.0757V12.6937C16.1525 12.5095 16.2257 12.3329 16.3559 12.2028C16.4861 12.0726 16.6627 11.9994 16.8468 11.9994H20.9994V14.77Z" fill="#929BA5" stroke="#929BA5" stroke-width="0.25"/>
<path d="M17.8979 14.0757C18.2813 14.0757 18.5921 13.7649 18.5921 13.3815C18.5921 12.998 18.2813 12.6872 17.8979 12.6872C17.5144 12.6872 17.2036 12.998 17.2036 13.3815C17.2036 13.7649 17.5144 14.0757 17.8979 14.0757Z" fill="#929BA5" stroke="#929BA5" stroke-width="0.25"/>
</svg>
